<svg width="64" height="77" viewBox="0 0 64 77" fill="none" xmlns="http://www.w3.org/2000/svg">
<path d="M34.6875 33.4062V67.2188H28.875V33.4062H34.6875ZM28.4375 24.4375C28.4375 23.5 28.7188 22.7083 29.2812 22.0625C29.8646 21.4167 30.7188 21.0938 31.8438 21.0938C32.9479 21.0938 33.7917 21.4167 34.375 22.0625C34.9792 22.7083 35.2812 23.5 35.2812 24.4375C35.2812 25.3333 34.9792 26.1042 34.375 26.75C33.7917 27.375 32.9479 27.6875 31.8438 27.6875C30.7188 27.6875 29.8646 27.375 29.2812 26.75C28.7188 26.1042 28.4375 25.3333 28.4375 24.4375ZM50.25 19.2188V67.2188H44.4375V19.2188H50.25Z" fill="white"/>
<path d="M4.95757 76.7813H0V8.78125H4.95757V76.7813Z" fill="#00B37E"/>
</svg>
